<mxfile host="app.diagrams.net" modified="2023-10-19T13:28:25.932Z" agent="Mozilla/5.0 (Windows NT 10.0; Win64; x64) AppleWebKit/537.36 (KHTML, like Gecko) Chrome/116.0.0.0 Safari/537.36 OPR/102.0.0.0" etag="6735PNADNiQr3gF_zAFM" version="22.0.5" type="device">
  <diagram name="Page-1" id="nnDhoHrILFCJt2SpapRj">
    <mxGraphModel dx="1337" dy="775" grid="1" gridSize="10" guides="1" tooltips="1" connect="1" arrows="1" fold="1" page="1" pageScale="1" pageWidth="850" pageHeight="1100" math="0" shadow="0">
      <root>
        <mxCell id="0" />
        <mxCell id="1" parent="0" />
        <mxCell id="mooZ5fXwIFNH-imRUBVn-38" value="&lt;font style=&quot;font-size: 25px;&quot;&gt;&amp;nbsp; Optional settings&lt;/font&gt;" style="rounded=1;whiteSpace=wrap;html=1;fillColor=none;dashed=1;perimeterSpacing=0;glass=0;arcSize=3;strokeColor=#000000;align=left;imageVerticalAlign=middle;noLabel=0;verticalAlign=top;fontStyle=1" vertex="1" parent="1">
          <mxGeometry x="11" y="670" width="830" height="420" as="geometry" />
        </mxCell>
        <mxCell id="mooZ5fXwIFNH-imRUBVn-37" value="&lt;font style=&quot;font-size: 25px;&quot;&gt;&amp;nbsp; Mandatory settings&lt;/font&gt;" style="rounded=1;whiteSpace=wrap;html=1;fillColor=none;dashed=1;perimeterSpacing=0;glass=0;arcSize=3;strokeColor=#000000;align=left;imageVerticalAlign=middle;noLabel=0;verticalAlign=top;fontStyle=1" vertex="1" parent="1">
          <mxGeometry x="11" y="10" width="830" height="650" as="geometry" />
        </mxCell>
        <mxCell id="mooZ5fXwIFNH-imRUBVn-7" style="edgeStyle=orthogonalEdgeStyle;rounded=0;orthogonalLoop=1;jettySize=auto;html=1;exitX=0.5;exitY=1;exitDx=0;exitDy=0;entryX=0.5;entryY=0;entryDx=0;entryDy=0;" edge="1" parent="1" source="mooZ5fXwIFNH-imRUBVn-1" target="mooZ5fXwIFNH-imRUBVn-6">
          <mxGeometry relative="1" as="geometry" />
        </mxCell>
        <mxCell id="mooZ5fXwIFNH-imRUBVn-1" value="&lt;font style=&quot;font-size: 14px;&quot;&gt;Set the template storage path to the second to &lt;br&gt;last subfolder relative &lt;br&gt;to XML file location&lt;br&gt;&lt;/font&gt;" style="rounded=1;whiteSpace=wrap;html=1;strokeColor=#007FFF;" vertex="1" parent="1">
          <mxGeometry x="230" y="191.5" width="160" height="80" as="geometry" />
        </mxCell>
        <mxCell id="mooZ5fXwIFNH-imRUBVn-4" style="edgeStyle=orthogonalEdgeStyle;rounded=1;orthogonalLoop=1;jettySize=auto;html=1;exitX=0;exitY=0.5;exitDx=0;exitDy=0;entryX=0.5;entryY=0;entryDx=0;entryDy=0;" edge="1" parent="1" source="mooZ5fXwIFNH-imRUBVn-2" target="mooZ5fXwIFNH-imRUBVn-1">
          <mxGeometry relative="1" as="geometry" />
        </mxCell>
        <mxCell id="mooZ5fXwIFNH-imRUBVn-8" value="&lt;font style=&quot;font-size: 12px;&quot;&gt;XML files&lt;/font&gt;" style="edgeLabel;html=1;align=center;verticalAlign=middle;resizable=0;points=[];" vertex="1" connectable="0" parent="mooZ5fXwIFNH-imRUBVn-4">
          <mxGeometry x="-0.3161" y="2" relative="1" as="geometry">
            <mxPoint x="7" y="-12" as="offset" />
          </mxGeometry>
        </mxCell>
        <mxCell id="mooZ5fXwIFNH-imRUBVn-2" value="&lt;font style=&quot;font-size: 14px;&quot;&gt;Template&lt;br&gt;storage&lt;br&gt;type&lt;/font&gt;" style="rhombus;whiteSpace=wrap;html=1;" vertex="1" parent="1">
          <mxGeometry x="370" y="89.5" width="110" height="110" as="geometry" />
        </mxCell>
        <mxCell id="mooZ5fXwIFNH-imRUBVn-25" style="edgeStyle=orthogonalEdgeStyle;rounded=0;orthogonalLoop=1;jettySize=auto;html=1;exitX=0.5;exitY=1;exitDx=0;exitDy=0;entryX=0.5;entryY=0;entryDx=0;entryDy=0;" edge="1" parent="1" source="mooZ5fXwIFNH-imRUBVn-3" target="mooZ5fXwIFNH-imRUBVn-21">
          <mxGeometry relative="1" as="geometry" />
        </mxCell>
        <mxCell id="mooZ5fXwIFNH-imRUBVn-3" value="&lt;font style=&quot;font-size: 14px;&quot;&gt;Set the template &lt;br&gt;storage path to the SQLite database file&lt;br&gt;&lt;/font&gt;" style="rounded=1;whiteSpace=wrap;html=1;strokeColor=#007FFF;" vertex="1" parent="1">
          <mxGeometry x="454" y="191.5" width="160" height="80" as="geometry" />
        </mxCell>
        <mxCell id="mooZ5fXwIFNH-imRUBVn-5" style="edgeStyle=orthogonalEdgeStyle;rounded=1;orthogonalLoop=1;jettySize=auto;html=1;exitX=1;exitY=0.5;exitDx=0;exitDy=0;entryX=0.5;entryY=0;entryDx=0;entryDy=0;" edge="1" parent="1" source="mooZ5fXwIFNH-imRUBVn-2" target="mooZ5fXwIFNH-imRUBVn-3">
          <mxGeometry relative="1" as="geometry">
            <mxPoint x="590" y="171.5" as="targetPoint" />
          </mxGeometry>
        </mxCell>
        <mxCell id="mooZ5fXwIFNH-imRUBVn-9" value="&lt;font style=&quot;font-size: 12px;&quot;&gt;SQLite database&lt;/font&gt;" style="edgeLabel;html=1;align=center;verticalAlign=middle;resizable=0;points=[];" vertex="1" connectable="0" parent="mooZ5fXwIFNH-imRUBVn-5">
          <mxGeometry x="-0.5871" y="-2" relative="1" as="geometry">
            <mxPoint x="28" y="-11" as="offset" />
          </mxGeometry>
        </mxCell>
        <mxCell id="mooZ5fXwIFNH-imRUBVn-29" style="edgeStyle=orthogonalEdgeStyle;rounded=1;orthogonalLoop=1;jettySize=auto;html=1;exitX=0.5;exitY=1;exitDx=0;exitDy=0;entryX=0.5;entryY=0;entryDx=0;entryDy=0;" edge="1" parent="1" source="mooZ5fXwIFNH-imRUBVn-6" target="mooZ5fXwIFNH-imRUBVn-27">
          <mxGeometry relative="1" as="geometry">
            <Array as="points">
              <mxPoint x="310" y="461.5" />
              <mxPoint x="425" y="461.5" />
            </Array>
          </mxGeometry>
        </mxCell>
        <mxCell id="mooZ5fXwIFNH-imRUBVn-6" value="&lt;font style=&quot;font-size: 14px;&quot;&gt;Set the unique version &lt;br&gt;string equal to the last subfolder that contains XML files&lt;br&gt;&lt;/font&gt;" style="rounded=1;whiteSpace=wrap;html=1;strokeColor=#FF4242;" vertex="1" parent="1">
          <mxGeometry x="230" y="311.5" width="160" height="80" as="geometry" />
        </mxCell>
        <mxCell id="mooZ5fXwIFNH-imRUBVn-10" value="&lt;font style=&quot;font-size: 14px;&quot;&gt;&lt;b&gt;XML file example location:&lt;/b&gt;&lt;br&gt;&lt;i&gt;&lt;font color=&quot;#007fff&quot;&gt;XML\Activities&lt;/font&gt;\&lt;font color=&quot;#ff4242&quot;&gt;2022.4.3_Classic&lt;/font&gt;&lt;/i&gt;&lt;/font&gt;" style="text;html=1;strokeColor=none;fillColor=none;align=left;verticalAlign=middle;whiteSpace=wrap;rounded=0;labelPosition=center;verticalLabelPosition=middle;" vertex="1" parent="1">
          <mxGeometry x="20" y="120" width="180" height="30" as="geometry" />
        </mxCell>
        <mxCell id="mooZ5fXwIFNH-imRUBVn-14" value="" style="endArrow=none;html=1;strokeWidth=3;rounded=0;strokeColor=#007FFF;" edge="1" parent="1">
          <mxGeometry width="50" height="50" relative="1" as="geometry">
            <mxPoint x="21" y="156" as="sourcePoint" />
            <mxPoint x="110" y="156" as="targetPoint" />
          </mxGeometry>
        </mxCell>
        <mxCell id="mooZ5fXwIFNH-imRUBVn-15" value="" style="endArrow=none;html=1;strokeWidth=3;rounded=0;strokeColor=#FF4242;" edge="1" parent="1">
          <mxGeometry width="50" height="50" relative="1" as="geometry">
            <mxPoint x="115" y="156" as="sourcePoint" />
            <mxPoint x="222" y="156" as="targetPoint" />
          </mxGeometry>
        </mxCell>
        <mxCell id="mooZ5fXwIFNH-imRUBVn-16" value="" style="endArrow=classic;html=1;rounded=1;exitX=0;exitY=0.5;exitDx=0;exitDy=0;edgeStyle=orthogonalEdgeStyle;strokeColor=#007FFF;dashed=1;" edge="1" parent="1" source="mooZ5fXwIFNH-imRUBVn-1">
          <mxGeometry width="50" height="50" relative="1" as="geometry">
            <mxPoint x="322" y="229.5" as="sourcePoint" />
            <mxPoint x="66" y="160" as="targetPoint" />
          </mxGeometry>
        </mxCell>
        <mxCell id="mooZ5fXwIFNH-imRUBVn-17" value="" style="endArrow=classic;html=1;rounded=1;exitX=0;exitY=0.5;exitDx=0;exitDy=0;edgeStyle=orthogonalEdgeStyle;strokeColor=#FF4242;dashed=1;" edge="1" parent="1" source="mooZ5fXwIFNH-imRUBVn-6">
          <mxGeometry width="50" height="50" relative="1" as="geometry">
            <mxPoint x="232" y="219.5" as="sourcePoint" />
            <mxPoint x="170" y="160" as="targetPoint" />
          </mxGeometry>
        </mxCell>
        <mxCell id="mooZ5fXwIFNH-imRUBVn-18" value="&lt;font style=&quot;font-size: 14px;&quot;&gt;&lt;b&gt;Database file example location:&lt;/b&gt;&lt;br&gt;&lt;i&gt;&lt;font color=&quot;#007fff&quot;&gt;SQLite\uipath.db&lt;/font&gt;&lt;/i&gt;&lt;/font&gt;" style="text;html=1;strokeColor=none;fillColor=none;align=left;verticalAlign=middle;whiteSpace=wrap;rounded=0;labelPosition=center;verticalLabelPosition=middle;" vertex="1" parent="1">
          <mxGeometry x="621" y="120" width="220" height="30" as="geometry" />
        </mxCell>
        <mxCell id="mooZ5fXwIFNH-imRUBVn-19" value="" style="endArrow=classic;html=1;rounded=1;exitX=1;exitY=0.5;exitDx=0;exitDy=0;edgeStyle=orthogonalEdgeStyle;strokeColor=#007FFF;dashed=1;" edge="1" parent="1" source="mooZ5fXwIFNH-imRUBVn-3">
          <mxGeometry width="50" height="50" relative="1" as="geometry">
            <mxPoint x="210" y="219.5" as="sourcePoint" />
            <mxPoint x="676" y="159" as="targetPoint" />
          </mxGeometry>
        </mxCell>
        <mxCell id="mooZ5fXwIFNH-imRUBVn-20" value="" style="endArrow=none;html=1;strokeWidth=3;rounded=0;strokeColor=#007FFF;" edge="1" parent="1">
          <mxGeometry width="50" height="50" relative="1" as="geometry">
            <mxPoint x="624" y="155" as="sourcePoint" />
            <mxPoint x="725" y="155" as="targetPoint" />
          </mxGeometry>
        </mxCell>
        <mxCell id="mooZ5fXwIFNH-imRUBVn-30" style="edgeStyle=orthogonalEdgeStyle;rounded=1;orthogonalLoop=1;jettySize=auto;html=1;exitX=0.5;exitY=1;exitDx=0;exitDy=0;entryX=0.5;entryY=0;entryDx=0;entryDy=0;" edge="1" parent="1" source="mooZ5fXwIFNH-imRUBVn-21" target="mooZ5fXwIFNH-imRUBVn-27">
          <mxGeometry relative="1" as="geometry">
            <mxPoint x="400" y="479.5" as="targetPoint" />
            <Array as="points">
              <mxPoint x="534" y="461.5" />
              <mxPoint x="425" y="461.5" />
            </Array>
          </mxGeometry>
        </mxCell>
        <mxCell id="mooZ5fXwIFNH-imRUBVn-21" value="&lt;font style=&quot;font-size: 14px;&quot;&gt;Set the unique version &lt;br&gt;string equal to the &lt;br&gt;version value by which &lt;br&gt;to include activities&amp;nbsp;&lt;br&gt;(&lt;font color=&quot;#ff4242&quot;&gt;2022.4.3_Classic&lt;br&gt;&lt;/font&gt;by default)&lt;br&gt;&lt;/font&gt;" style="rounded=1;whiteSpace=wrap;html=1;strokeColor=#FF4242;" vertex="1" parent="1">
          <mxGeometry x="454" y="311.5" width="160" height="120" as="geometry" />
        </mxCell>
        <mxCell id="mooZ5fXwIFNH-imRUBVn-22" value="&lt;font style=&quot;font-size: 14px;&quot;&gt;&lt;b&gt;Database table snippet:&lt;/b&gt;&lt;br&gt;&lt;/font&gt;" style="text;html=1;strokeColor=none;fillColor=none;align=center;verticalAlign=middle;whiteSpace=wrap;rounded=0;labelPosition=center;verticalLabelPosition=middle;" vertex="1" parent="1">
          <mxGeometry x="621" y="288.5" width="220" height="30" as="geometry" />
        </mxCell>
        <mxCell id="mooZ5fXwIFNH-imRUBVn-23" value="Table&lt;br&gt;&lt;i&gt;SpeechRecognitionActivity&lt;/i&gt;" style="swimlane;childLayout=stackLayout;horizontal=1;startSize=50;horizontalStack=0;rounded=1;fontSize=14;fontStyle=0;strokeWidth=2;resizeParent=0;resizeLast=1;shadow=0;dashed=0;align=center;arcSize=4;whiteSpace=wrap;html=1;" vertex="1" parent="1">
          <mxGeometry x="636" y="318.5" width="190" height="120" as="geometry" />
        </mxCell>
        <mxCell id="mooZ5fXwIFNH-imRUBVn-24" value="+id&lt;br&gt;+&lt;font color=&quot;#ff4242&quot;&gt;version = &#39;2022.4.3_Classic&#39;&lt;/font&gt;&lt;br&gt;+name&lt;br&gt;+xml" style="align=left;strokeColor=none;fillColor=none;spacingLeft=4;fontSize=12;verticalAlign=top;resizable=0;rotatable=0;part=1;html=1;" vertex="1" parent="mooZ5fXwIFNH-imRUBVn-23">
          <mxGeometry y="50" width="190" height="70" as="geometry" />
        </mxCell>
        <mxCell id="mooZ5fXwIFNH-imRUBVn-26" value="" style="endArrow=classic;html=1;rounded=1;edgeStyle=orthogonalEdgeStyle;strokeColor=#FF4242;dashed=1;" edge="1" parent="1">
          <mxGeometry width="50" height="50" relative="1" as="geometry">
            <mxPoint x="595" y="397.5" as="sourcePoint" />
            <mxPoint x="641" y="397.5" as="targetPoint" />
          </mxGeometry>
        </mxCell>
        <mxCell id="mooZ5fXwIFNH-imRUBVn-35" style="edgeStyle=orthogonalEdgeStyle;rounded=0;orthogonalLoop=1;jettySize=auto;html=1;exitX=0.5;exitY=1;exitDx=0;exitDy=0;entryX=0.5;entryY=0;entryDx=0;entryDy=0;" edge="1" parent="1" source="mooZ5fXwIFNH-imRUBVn-27" target="mooZ5fXwIFNH-imRUBVn-34">
          <mxGeometry relative="1" as="geometry" />
        </mxCell>
        <mxCell id="mooZ5fXwIFNH-imRUBVn-27" value="&lt;font style=&quot;font-size: 14px;&quot;&gt;Set the keyword file location to a text file containing keywords to recognize&lt;br&gt;&lt;/font&gt;" style="rounded=1;whiteSpace=wrap;html=1;strokeColor=#009900;" vertex="1" parent="1">
          <mxGeometry x="345" y="489.5" width="160" height="80" as="geometry" />
        </mxCell>
        <mxCell id="mooZ5fXwIFNH-imRUBVn-28" value="&lt;font style=&quot;font-size: 14px;&quot;&gt;&lt;b style=&quot;font-size: 14px;&quot;&gt;Keyword file example location:&lt;/b&gt;&lt;br&gt;&lt;i style=&quot;&quot;&gt;&lt;font color=&quot;#009900&quot;&gt;&lt;font style=&quot;font-size: 14px;&quot;&gt;SAPI\&lt;/font&gt;ActivitySpeechRecognizer_keywords.txt&lt;/font&gt;&lt;/i&gt;&lt;/font&gt;" style="text;html=1;strokeColor=none;fillColor=none;align=left;verticalAlign=middle;whiteSpace=wrap;rounded=0;labelPosition=center;verticalLabelPosition=middle;textDirection=ltr;" vertex="1" parent="1">
          <mxGeometry x="20" y="459.5" width="200" height="30" as="geometry" />
        </mxCell>
        <mxCell id="mooZ5fXwIFNH-imRUBVn-31" value="" style="endArrow=none;html=1;strokeWidth=3;rounded=0;strokeColor=#009900;" edge="1" parent="1">
          <mxGeometry width="50" height="50" relative="1" as="geometry">
            <mxPoint x="22" y="494.5" as="sourcePoint" />
            <mxPoint x="305" y="494.5" as="targetPoint" />
          </mxGeometry>
        </mxCell>
        <mxCell id="mooZ5fXwIFNH-imRUBVn-33" value="" style="endArrow=classic;html=1;rounded=1;exitX=0;exitY=0.5;exitDx=0;exitDy=0;edgeStyle=orthogonalEdgeStyle;strokeColor=#009900;dashed=1;" edge="1" parent="1" source="mooZ5fXwIFNH-imRUBVn-27">
          <mxGeometry width="50" height="50" relative="1" as="geometry">
            <mxPoint x="210" y="329.5" as="sourcePoint" />
            <mxPoint x="150" y="500.5" as="targetPoint" />
            <Array as="points">
              <mxPoint x="150" y="529.5" />
            </Array>
          </mxGeometry>
        </mxCell>
        <mxCell id="mooZ5fXwIFNH-imRUBVn-40" style="edgeStyle=orthogonalEdgeStyle;rounded=0;orthogonalLoop=1;jettySize=auto;html=1;exitX=0.5;exitY=1;exitDx=0;exitDy=0;entryX=0.5;entryY=0;entryDx=0;entryDy=0;" edge="1" parent="1" source="mooZ5fXwIFNH-imRUBVn-34" target="mooZ5fXwIFNH-imRUBVn-39">
          <mxGeometry relative="1" as="geometry">
            <mxPoint x="400" y="710" as="targetPoint" />
          </mxGeometry>
        </mxCell>
        <mxCell id="mooZ5fXwIFNH-imRUBVn-34" value="&lt;font style=&quot;font-size: 14px;&quot;&gt;Assign the push-to-talk hotkey&lt;br&gt;&lt;/font&gt;" style="rounded=1;whiteSpace=wrap;html=1;strokeColor=#000000;" vertex="1" parent="1">
          <mxGeometry x="345" y="599.5" width="160" height="50" as="geometry" />
        </mxCell>
        <mxCell id="mooZ5fXwIFNH-imRUBVn-36" value="&lt;font style=&quot;font-size: 14px;&quot;&gt;&lt;b style=&quot;font-size: 14px;&quot;&gt;A hotkey incompatible with the input &lt;br&gt;control may still be used by directly &lt;br&gt;assigning it into the settings file&lt;/b&gt;&lt;br&gt;&lt;/font&gt;" style="text;html=1;strokeColor=none;fillColor=none;align=left;verticalAlign=middle;whiteSpace=wrap;rounded=0;labelPosition=center;verticalLabelPosition=middle;textDirection=ltr;rotation=0;" vertex="1" parent="1">
          <mxGeometry x="20" y="579.5" width="270" height="70" as="geometry" />
        </mxCell>
        <mxCell id="mooZ5fXwIFNH-imRUBVn-42" style="edgeStyle=orthogonalEdgeStyle;rounded=0;orthogonalLoop=1;jettySize=auto;html=1;exitX=0.5;exitY=1;exitDx=0;exitDy=0;entryX=0.5;entryY=0;entryDx=0;entryDy=0;" edge="1" parent="1" source="mooZ5fXwIFNH-imRUBVn-39" target="mooZ5fXwIFNH-imRUBVn-46">
          <mxGeometry relative="1" as="geometry" />
        </mxCell>
        <mxCell id="mooZ5fXwIFNH-imRUBVn-39" value="&lt;font style=&quot;font-size: 14px;&quot;&gt;Set the feedback message&lt;br&gt;&lt;/font&gt;" style="rounded=1;whiteSpace=wrap;html=1;strokeColor=#000000;" vertex="1" parent="1">
          <mxGeometry x="345" y="680" width="160" height="50" as="geometry" />
        </mxCell>
        <mxCell id="mooZ5fXwIFNH-imRUBVn-44" style="edgeStyle=orthogonalEdgeStyle;rounded=1;orthogonalLoop=1;jettySize=auto;html=1;exitX=0.5;exitY=1;exitDx=0;exitDy=0;entryX=0.5;entryY=0;entryDx=0;entryDy=0;" edge="1" parent="1" source="mooZ5fXwIFNH-imRUBVn-41" target="mooZ5fXwIFNH-imRUBVn-49">
          <mxGeometry relative="1" as="geometry">
            <Array as="points">
              <mxPoint x="246" y="860" />
              <mxPoint x="425" y="860" />
              <mxPoint x="425" y="890" />
            </Array>
          </mxGeometry>
        </mxCell>
        <mxCell id="mooZ5fXwIFNH-imRUBVn-41" value="&lt;font style=&quot;font-size: 14px;&quot;&gt;Enable tooltip feedback&lt;br&gt;&lt;/font&gt;" style="rounded=1;whiteSpace=wrap;html=1;strokeColor=#000000;" vertex="1" parent="1">
          <mxGeometry x="166.38" y="785" width="160" height="30" as="geometry" />
        </mxCell>
        <mxCell id="mooZ5fXwIFNH-imRUBVn-55" style="edgeStyle=orthogonalEdgeStyle;rounded=0;orthogonalLoop=1;jettySize=auto;html=1;exitX=0.5;exitY=1;exitDx=0;exitDy=0;entryX=0.5;entryY=0;entryDx=0;entryDy=0;" edge="1" parent="1" source="mooZ5fXwIFNH-imRUBVn-43" target="mooZ5fXwIFNH-imRUBVn-54">
          <mxGeometry relative="1" as="geometry" />
        </mxCell>
        <mxCell id="mooZ5fXwIFNH-imRUBVn-43" value="&lt;font style=&quot;font-size: 14px;&quot;&gt;Enable audio feedback&lt;br&gt;&lt;/font&gt;" style="rounded=1;whiteSpace=wrap;html=1;strokeColor=#000000;" vertex="1" parent="1">
          <mxGeometry x="166.38" y="915" width="160" height="30" as="geometry" />
        </mxCell>
        <mxCell id="mooZ5fXwIFNH-imRUBVn-47" style="edgeStyle=orthogonalEdgeStyle;rounded=0;orthogonalLoop=1;jettySize=auto;html=1;exitX=0;exitY=0.5;exitDx=0;exitDy=0;entryX=1;entryY=0.5;entryDx=0;entryDy=0;" edge="1" parent="1" source="mooZ5fXwIFNH-imRUBVn-46" target="mooZ5fXwIFNH-imRUBVn-41">
          <mxGeometry relative="1" as="geometry" />
        </mxCell>
        <mxCell id="mooZ5fXwIFNH-imRUBVn-48" value="&lt;font style=&quot;font-size: 12px;&quot;&gt;Yes&lt;/font&gt;" style="edgeLabel;html=1;align=center;verticalAlign=middle;resizable=0;points=[];" vertex="1" connectable="0" parent="mooZ5fXwIFNH-imRUBVn-47">
          <mxGeometry x="-0.1857" y="1" relative="1" as="geometry">
            <mxPoint y="-11" as="offset" />
          </mxGeometry>
        </mxCell>
        <mxCell id="mooZ5fXwIFNH-imRUBVn-50" style="edgeStyle=orthogonalEdgeStyle;rounded=1;orthogonalLoop=1;jettySize=auto;html=1;exitX=1;exitY=0.5;exitDx=0;exitDy=0;entryX=0.5;entryY=0;entryDx=0;entryDy=0;" edge="1" parent="1" source="mooZ5fXwIFNH-imRUBVn-46" target="mooZ5fXwIFNH-imRUBVn-49">
          <mxGeometry relative="1" as="geometry">
            <Array as="points">
              <mxPoint x="506" y="800" />
              <mxPoint x="506" y="860" />
              <mxPoint x="425" y="860" />
              <mxPoint x="425" y="890" />
            </Array>
          </mxGeometry>
        </mxCell>
        <mxCell id="mooZ5fXwIFNH-imRUBVn-51" value="&lt;font style=&quot;font-size: 12px;&quot;&gt;No&lt;/font&gt;" style="edgeLabel;html=1;align=center;verticalAlign=middle;resizable=0;points=[];" vertex="1" connectable="0" parent="mooZ5fXwIFNH-imRUBVn-50">
          <mxGeometry x="-0.6991" y="-1" relative="1" as="geometry">
            <mxPoint x="-9" y="-11" as="offset" />
          </mxGeometry>
        </mxCell>
        <mxCell id="mooZ5fXwIFNH-imRUBVn-46" value="Tooltip feedback" style="rhombus;whiteSpace=wrap;html=1;" vertex="1" parent="1">
          <mxGeometry x="384.59" y="760" width="80" height="80" as="geometry" />
        </mxCell>
        <mxCell id="mooZ5fXwIFNH-imRUBVn-52" style="edgeStyle=orthogonalEdgeStyle;rounded=0;orthogonalLoop=1;jettySize=auto;html=1;exitX=0;exitY=0.5;exitDx=0;exitDy=0;entryX=1;entryY=0.5;entryDx=0;entryDy=0;" edge="1" parent="1" source="mooZ5fXwIFNH-imRUBVn-49" target="mooZ5fXwIFNH-imRUBVn-43">
          <mxGeometry relative="1" as="geometry" />
        </mxCell>
        <mxCell id="mooZ5fXwIFNH-imRUBVn-53" value="&lt;font style=&quot;font-size: 12px;&quot;&gt;Yes&lt;/font&gt;" style="edgeLabel;html=1;align=center;verticalAlign=middle;resizable=0;points=[];" vertex="1" connectable="0" parent="mooZ5fXwIFNH-imRUBVn-52">
          <mxGeometry x="-0.2437" y="-1" relative="1" as="geometry">
            <mxPoint y="-9" as="offset" />
          </mxGeometry>
        </mxCell>
        <mxCell id="mooZ5fXwIFNH-imRUBVn-60" style="edgeStyle=orthogonalEdgeStyle;rounded=1;orthogonalLoop=1;jettySize=auto;html=1;exitX=1;exitY=0.5;exitDx=0;exitDy=0;entryX=1;entryY=0.5;entryDx=0;entryDy=0;" edge="1" parent="1" source="mooZ5fXwIFNH-imRUBVn-49" target="mooZ5fXwIFNH-imRUBVn-58">
          <mxGeometry relative="1" as="geometry">
            <Array as="points">
              <mxPoint x="506" y="930" />
              <mxPoint x="506" y="1055" />
            </Array>
          </mxGeometry>
        </mxCell>
        <mxCell id="mooZ5fXwIFNH-imRUBVn-61" value="&lt;font style=&quot;font-size: 12px;&quot;&gt;No&lt;/font&gt;" style="edgeLabel;html=1;align=center;verticalAlign=middle;resizable=0;points=[];" vertex="1" connectable="0" parent="mooZ5fXwIFNH-imRUBVn-60">
          <mxGeometry x="-0.8294" y="-1" relative="1" as="geometry">
            <mxPoint x="-1" y="-11" as="offset" />
          </mxGeometry>
        </mxCell>
        <mxCell id="mooZ5fXwIFNH-imRUBVn-49" value="Audio feedback" style="rhombus;whiteSpace=wrap;html=1;" vertex="1" parent="1">
          <mxGeometry x="384.59" y="890" width="80" height="80" as="geometry" />
        </mxCell>
        <mxCell id="mooZ5fXwIFNH-imRUBVn-57" style="edgeStyle=orthogonalEdgeStyle;rounded=0;orthogonalLoop=1;jettySize=auto;html=1;exitX=0.5;exitY=1;exitDx=0;exitDy=0;entryX=0.5;entryY=0;entryDx=0;entryDy=0;" edge="1" parent="1" source="mooZ5fXwIFNH-imRUBVn-54" target="mooZ5fXwIFNH-imRUBVn-56">
          <mxGeometry relative="1" as="geometry" />
        </mxCell>
        <mxCell id="mooZ5fXwIFNH-imRUBVn-54" value="&lt;font style=&quot;font-size: 14px;&quot;&gt;Select audio voice&lt;br&gt;&lt;/font&gt;" style="rounded=1;whiteSpace=wrap;html=1;strokeColor=#000000;" vertex="1" parent="1">
          <mxGeometry x="164.96" y="980" width="160" height="30" as="geometry" />
        </mxCell>
        <mxCell id="mooZ5fXwIFNH-imRUBVn-59" style="edgeStyle=orthogonalEdgeStyle;rounded=0;orthogonalLoop=1;jettySize=auto;html=1;exitX=1;exitY=0.5;exitDx=0;exitDy=0;entryX=0;entryY=0.5;entryDx=0;entryDy=0;" edge="1" parent="1" source="mooZ5fXwIFNH-imRUBVn-56" target="mooZ5fXwIFNH-imRUBVn-58">
          <mxGeometry relative="1" as="geometry" />
        </mxCell>
        <mxCell id="mooZ5fXwIFNH-imRUBVn-56" value="&lt;font style=&quot;font-size: 14px;&quot;&gt;Set audio volume&lt;br&gt;&lt;/font&gt;" style="rounded=1;whiteSpace=wrap;html=1;strokeColor=#000000;" vertex="1" parent="1">
          <mxGeometry x="164.96" y="1040" width="160" height="30" as="geometry" />
        </mxCell>
        <mxCell id="mooZ5fXwIFNH-imRUBVn-58" value="End" style="ellipse;html=1;shape=endState;fillColor=none;strokeColor=#000000;" vertex="1" parent="1">
          <mxGeometry x="402.09" y="1032.5" width="45" height="45" as="geometry" />
        </mxCell>
        <mxCell id="mooZ5fXwIFNH-imRUBVn-64" style="edgeStyle=orthogonalEdgeStyle;rounded=0;orthogonalLoop=1;jettySize=auto;html=1;exitX=0.5;exitY=1;exitDx=0;exitDy=0;exitPerimeter=0;entryX=0.5;entryY=0;entryDx=0;entryDy=0;" edge="1" parent="1" source="mooZ5fXwIFNH-imRUBVn-62" target="mooZ5fXwIFNH-imRUBVn-2">
          <mxGeometry relative="1" as="geometry" />
        </mxCell>
        <mxCell id="mooZ5fXwIFNH-imRUBVn-62" value="Start" style="strokeWidth=2;html=1;shape=mxgraph.flowchart.start_2;whiteSpace=wrap;" vertex="1" parent="1">
          <mxGeometry x="402.46" y="20" width="44.25" height="44.25" as="geometry" />
        </mxCell>
      </root>
    </mxGraphModel>
  </diagram>
</mxfile>
